<svg width="896" height="270" viewBox="0 0 896 270" fill="none" xmlns="http://www.w3.org/2000/svg">
<g clip-path="url(#clip0_1198_620)">
<path d="M257.367 13.4922L258.077 20.1139L244.04 40.2088L273.722 92.4303C273.513 79.173 273.312 65.9435 273.117 52.7419C271.627 52.2189 270.262 51.394 269.106 50.3188C268.075 49.1625 267.471 47.6883 267.393 46.1411C267.379 45.2225 267.547 44.3102 267.888 43.4569C268.228 42.6036 268.735 41.8262 269.377 41.1696C269.776 40.7977 270.218 40.4751 270.693 40.2088C271.789 39.5978 273.022 39.277 274.276 39.277C275.53 39.277 276.763 39.5978 277.858 40.2088C278.906 40.7881 279.776 41.6434 280.372 42.6818C280.969 43.7202 281.27 44.9021 281.242 46.0994C281.032 47.9383 280.234 49.6601 278.965 51.0082C278.243 51.7423 277.403 52.3496 276.48 52.8046L275.999 92.493L306.162 39.9372L291.123 20.1139L291.749 13.4922H349.026L348.504 20.0722L343.595 29.2213C341.631 32.842 339.675 36.4697 337.725 40.1043L274.809 157.081C250.16 111.474 225.518 65.8809 200.884 20.3019L200.006 13.722L257.367 13.4922Z" fill="white"/>
<path d="M14.3537 157.359V13.8153H43.3366V157.359H14.3537ZM71.3405 157.359V13.8153H99.5401L158.289 109.675V13.8153H185.216V157.359H156.135L98.2672 63.7522V157.359H71.3405Z" fill="white"/>
<path d="M361.815 157.359V13.8153H390.798V157.359H361.815ZM411.164 110.654L439.364 107.912C441.061 117.377 444.488 124.329 449.645 128.768C454.867 133.207 461.884 135.426 470.697 135.426C480.031 135.426 487.048 133.468 491.748 129.551C496.514 125.569 498.896 120.935 498.896 115.647C498.896 112.253 497.884 109.381 495.861 107.031C493.903 104.616 490.443 102.527 485.482 100.764C482.087 99.5893 474.352 97.5004 462.276 94.4977C446.74 90.6463 435.839 85.9137 429.572 80.2999C420.76 72.4014 416.354 62.7731 416.354 51.4149C416.354 44.1038 418.41 37.2824 422.522 30.9505C426.7 24.5534 432.673 19.6903 440.441 16.3611C448.274 13.032 457.706 11.3674 468.738 11.3674C486.755 11.3674 500.3 15.3167 509.373 23.2152C518.512 31.1137 523.31 41.656 523.767 54.8419L494.784 56.1148C493.544 48.7385 490.867 43.4511 486.755 40.2525C482.708 36.9887 476.604 35.3567 468.445 35.3567C460.024 35.3567 453.431 37.0866 448.666 40.5462C445.598 42.7657 444.064 45.7358 444.064 49.4566C444.064 52.851 445.5 55.7558 448.372 58.171C452.027 61.239 460.905 64.4376 475.005 67.7667C489.105 71.0959 499.516 74.5555 506.24 78.1458C513.029 81.6707 518.316 86.5339 522.102 92.7352C525.954 98.8712 527.879 106.476 527.879 115.549C527.879 123.774 525.595 131.477 521.025 138.658C516.456 145.838 509.993 151.191 501.638 154.716C493.282 158.175 482.871 159.905 470.403 159.905C452.256 159.905 438.319 155.727 428.593 147.372C418.867 138.951 413.057 126.712 411.164 110.654ZM551.379 157.359V13.8153H580.362V157.359H551.379ZM602.197 86.4686C602.197 71.8466 604.384 59.5745 608.757 49.6524C612.021 42.3414 616.46 35.781 622.074 29.9714C627.753 24.1617 633.954 19.8534 640.678 17.0465C649.621 13.2605 659.935 11.3674 671.619 11.3674C692.769 11.3674 709.676 17.9278 722.339 31.0484C735.068 44.1691 741.433 62.414 741.433 85.7832C741.433 108.957 735.134 127.104 722.535 140.224C709.937 153.28 693.095 159.807 672.011 159.807C650.665 159.807 633.693 153.312 621.095 140.322C608.496 127.267 602.197 109.316 602.197 86.4686ZM632.061 85.4894C632.061 101.743 635.815 114.081 643.322 122.501C650.828 130.857 660.359 135.035 671.913 135.035C683.467 135.035 692.932 130.89 700.308 122.599C707.75 114.244 711.471 101.743 711.471 85.0978C711.471 68.648 707.848 56.3759 700.602 48.2816C693.422 40.1872 683.859 36.1401 671.913 36.1401C659.967 36.1401 650.339 40.2525 643.028 48.4774C635.717 56.637 632.061 68.9744 632.061 85.4894ZM764.443 157.359V13.8153H792.643L851.392 109.675V13.8153H878.319V157.359H849.238L791.37 63.7522V157.359H764.443Z" fill="white"/>
<path d="M10.4786 230.576L16.0782 230.087C16.3434 232.331 16.9553 234.177 17.9141 235.625C18.8933 237.053 20.4028 238.216 22.4427 239.113C24.4826 239.991 26.7775 240.429 29.3274 240.429C31.5917 240.429 33.5908 240.093 35.3247 239.419C37.0586 238.746 38.3437 237.828 39.1801 236.665C40.0369 235.482 40.4652 234.197 40.4652 232.81C40.4652 231.403 40.0573 230.179 39.2413 229.138C38.4253 228.077 37.079 227.19 35.2023 226.476C33.9987 226.007 31.3367 225.283 27.2161 224.304C23.0955 223.304 20.209 222.366 18.5567 221.489C16.4148 220.367 14.8134 218.979 13.7527 217.327C12.7123 215.654 12.1922 213.788 12.1922 211.728C12.1922 209.463 12.8347 207.352 14.1199 205.394C15.405 203.415 17.2817 201.916 19.75 200.896C22.2183 199.876 24.962 199.366 27.981 199.366C31.3061 199.366 34.2333 199.906 36.7628 200.988C39.3127 202.048 41.271 203.619 42.6377 205.7C44.0045 207.78 44.7389 210.137 44.8408 212.768L39.1495 213.196C38.8435 210.361 37.8032 208.219 36.0285 206.771C34.2741 205.322 31.6733 204.598 28.2258 204.598C24.6356 204.598 22.0143 205.261 20.362 206.587C18.7301 207.893 17.9141 209.474 17.9141 211.33C17.9141 212.941 18.4955 214.267 19.6582 215.308C20.8006 216.348 23.7788 217.419 28.593 218.521C33.4276 219.602 36.7424 220.55 38.5375 221.366C41.1486 222.57 43.0763 224.1 44.3207 225.956C45.565 227.792 46.1872 229.913 46.1872 232.32C46.1872 234.707 45.5038 236.961 44.1371 239.083C42.7703 241.184 40.8018 242.826 38.2316 244.009C35.6817 245.172 32.8054 245.753 29.6028 245.753C25.5433 245.753 22.1367 245.162 19.3828 243.979C16.6494 242.795 14.4973 241.021 12.9265 238.654C11.3762 236.268 10.5602 233.575 10.4786 230.576ZM73.8556 244.988V205.424H59.0765V200.131H94.6321V205.424H79.7918V244.988H73.8556ZM108.99 244.988V200.131H128.879C132.877 200.131 135.917 200.539 137.998 201.355C140.078 202.15 141.741 203.568 142.985 205.608C144.23 207.648 144.852 209.902 144.852 212.37C144.852 215.552 143.822 218.235 141.761 220.418C139.701 222.6 136.519 223.987 132.214 224.579C133.785 225.334 134.979 226.078 135.795 226.813C137.528 228.404 139.171 230.393 140.721 232.779L148.524 244.988H141.057L135.121 235.656C133.387 232.963 131.959 230.903 130.838 229.475C129.716 228.047 128.706 227.047 127.808 226.476C126.931 225.905 126.034 225.507 125.116 225.283C124.442 225.14 123.341 225.069 121.811 225.069H114.926V244.988H108.99ZM114.926 219.928H127.686C130.399 219.928 132.52 219.653 134.05 219.102C135.58 218.531 136.743 217.633 137.539 216.409C138.334 215.165 138.732 213.819 138.732 212.37C138.732 210.249 137.957 208.505 136.406 207.138C134.877 205.771 132.449 205.088 129.124 205.088H114.926V219.928ZM157.404 244.988L174.631 200.131H181.027L199.386 244.988H192.623L187.391 231.403H168.634L163.708 244.988H157.404ZM170.348 226.568H185.555L180.874 214.145C179.446 210.371 178.385 207.27 177.691 204.843C177.12 207.719 176.314 210.575 175.274 213.411L170.348 226.568ZM219.037 244.988V205.424H204.258V200.131H239.814V205.424H224.973V244.988H219.037ZM254.202 244.988V200.131H286.637V205.424H260.139V219.163H284.954V224.426H260.139V239.695H287.677V244.988H254.202ZM325.015 227.394V222.131L344.017 222.101V238.746C341.1 241.072 338.091 242.826 334.99 244.009C331.889 245.172 328.707 245.753 325.443 245.753C321.037 245.753 317.029 244.815 313.418 242.938C309.828 241.041 307.115 238.308 305.279 234.738C303.443 231.168 302.525 227.18 302.525 222.774C302.525 218.408 303.433 214.339 305.248 210.565C307.084 206.771 309.716 203.956 313.143 202.12C316.57 200.284 320.517 199.366 324.984 199.366C328.228 199.366 331.155 199.896 333.766 200.957C336.398 201.997 338.458 203.456 339.947 205.333C341.436 207.209 342.568 209.657 343.343 212.676L337.989 214.145C337.315 211.86 336.479 210.065 335.48 208.76C334.48 207.454 333.052 206.414 331.196 205.639C329.339 204.843 327.279 204.445 325.015 204.445C322.302 204.445 319.956 204.863 317.977 205.7C315.998 206.516 314.397 207.597 313.173 208.943C311.97 210.289 311.031 211.768 310.358 213.38C309.216 216.154 308.645 219.163 308.645 222.407C308.645 226.405 309.328 229.75 310.695 232.443C312.082 235.136 314.091 237.135 316.723 238.44C319.354 239.746 322.149 240.398 325.107 240.398C327.677 240.398 330.186 239.909 332.634 238.93C335.082 237.93 336.938 236.869 338.203 235.748V227.394H325.015ZM361.955 244.988V200.131H367.891V244.988H361.955ZM418.539 229.261L424.475 230.76C423.231 235.635 420.987 239.358 417.743 241.928C414.52 244.478 410.573 245.753 405.902 245.753C401.067 245.753 397.13 244.774 394.091 242.816C391.071 240.837 388.766 237.981 387.175 234.248C385.605 230.515 384.819 226.507 384.819 222.223C384.819 217.552 385.707 213.482 387.481 210.014C389.276 206.526 391.816 203.884 395.1 202.089C398.405 200.274 402.036 199.366 405.993 199.366C410.481 199.366 414.255 200.508 417.315 202.793C420.375 205.078 422.506 208.29 423.71 212.431L417.866 213.808C416.825 210.544 415.316 208.168 413.337 206.679C411.358 205.19 408.87 204.445 405.871 204.445C402.424 204.445 399.537 205.271 397.212 206.924C394.907 208.576 393.285 210.799 392.346 213.594C391.408 216.368 390.939 219.234 390.939 222.192C390.939 226.007 391.49 229.342 392.591 232.198C393.713 235.034 395.447 237.155 397.793 238.563C400.139 239.97 402.679 240.674 405.412 240.674C408.737 240.674 411.552 239.715 413.857 237.798C416.162 235.88 417.723 233.034 418.539 229.261ZM463.533 230.576L469.133 230.087C469.398 232.331 470.01 234.177 470.969 235.625C471.948 237.053 473.458 238.216 475.497 239.113C477.537 239.991 479.832 240.429 482.382 240.429C484.646 240.429 486.646 240.093 488.379 239.419C490.113 238.746 491.399 237.828 492.235 236.665C493.092 235.482 493.52 234.197 493.52 232.81C493.52 231.403 493.112 230.179 492.296 229.138C491.48 228.077 490.134 227.19 488.257 226.476C487.054 226.007 484.391 225.283 480.271 224.304C476.15 223.304 473.264 222.366 471.611 221.489C469.47 220.367 467.868 218.979 466.807 217.327C465.767 215.654 465.247 213.788 465.247 211.728C465.247 209.463 465.89 207.352 467.175 205.394C468.46 203.415 470.337 201.916 472.805 200.896C475.273 199.876 478.017 199.366 481.036 199.366C484.361 199.366 487.288 199.906 489.818 200.988C492.367 202.048 494.326 203.619 495.693 205.7C497.059 207.78 497.794 210.137 497.896 212.768L492.204 213.196C491.898 210.361 490.858 208.219 489.083 206.771C487.329 205.322 484.728 204.598 481.281 204.598C477.69 204.598 475.069 205.261 473.417 206.587C471.785 207.893 470.969 209.474 470.969 211.33C470.969 212.941 471.55 214.267 472.713 215.308C473.855 216.348 476.834 217.419 481.648 218.521C486.482 219.602 489.797 220.55 491.592 221.366C494.203 222.57 496.131 224.1 497.375 225.956C498.62 227.792 499.242 229.913 499.242 232.32C499.242 234.707 498.559 236.961 497.192 239.083C495.825 241.184 493.857 242.826 491.286 244.009C488.736 245.172 485.86 245.753 482.658 245.753C478.598 245.753 475.191 245.162 472.438 243.979C469.704 242.795 467.552 241.021 465.981 238.654C464.431 236.268 463.615 233.575 463.533 230.576ZM513.692 223.141C513.692 215.695 515.691 209.871 519.689 205.669C523.687 201.447 528.848 199.335 535.172 199.335C539.313 199.335 543.046 200.325 546.371 202.303C549.696 204.282 552.226 207.046 553.96 210.595C555.714 214.125 556.591 218.133 556.591 222.621C556.591 227.17 555.673 231.239 553.837 234.83C552.001 238.42 549.4 241.143 546.035 242.999C542.669 244.835 539.038 245.753 535.141 245.753C530.919 245.753 527.145 244.733 523.82 242.693C520.495 240.653 517.976 237.869 516.262 234.34C514.549 230.811 513.692 227.078 513.692 223.141ZM519.812 223.233C519.812 228.638 521.26 232.902 524.157 236.023C527.074 239.124 530.725 240.674 535.111 240.674C539.578 240.674 543.25 239.103 546.126 235.962C549.023 232.82 550.471 228.363 550.471 222.59C550.471 218.939 549.849 215.756 548.605 213.043C547.381 210.31 545.576 208.199 543.189 206.709C540.823 205.2 538.16 204.445 535.203 204.445C531 204.445 527.38 205.893 524.34 208.79C521.321 211.666 519.812 216.481 519.812 223.233ZM572.173 244.988V200.131H578.109V239.695H600.201V244.988H572.173ZM644.883 200.131H650.819V226.048C650.819 230.556 650.309 234.136 649.289 236.788C648.269 239.44 646.423 241.602 643.75 243.275C641.099 244.927 637.61 245.753 633.286 245.753C629.084 245.753 625.646 245.029 622.974 243.581C620.302 242.132 618.394 240.042 617.252 237.308C616.11 234.554 615.539 230.801 615.539 226.048V200.131H621.475V226.017C621.475 229.913 621.832 232.79 622.546 234.646C623.28 236.482 624.524 237.9 626.279 238.899C628.053 239.899 630.216 240.398 632.766 240.398C637.131 240.398 640.242 239.409 642.098 237.43C643.954 235.452 644.883 231.647 644.883 226.017V200.131ZM680.293 244.988V205.424H665.513V200.131H701.069V205.424H686.229V244.988H680.293ZM716.345 244.988V200.131H722.281V244.988H716.345ZM739.118 223.141C739.118 215.695 741.117 209.871 745.115 205.669C749.113 201.447 754.274 199.335 760.598 199.335C764.739 199.335 768.472 200.325 771.797 202.303C775.122 204.282 777.651 207.046 779.385 210.595C781.14 214.125 782.017 218.133 782.017 222.621C782.017 227.17 781.099 231.239 779.263 234.83C777.427 238.42 774.826 241.143 771.46 242.999C768.094 244.835 764.463 245.753 760.567 245.753C756.345 245.753 752.571 244.733 749.246 242.693C745.921 240.653 743.401 237.869 741.688 234.34C739.974 230.811 739.118 227.078 739.118 223.141ZM745.237 223.233C745.237 228.638 746.686 232.902 749.582 236.023C752.499 239.124 756.151 240.674 760.537 240.674C765.004 240.674 768.676 239.103 771.552 235.962C774.449 232.82 775.897 228.363 775.897 222.59C775.897 218.939 775.275 215.756 774.031 213.043C772.807 210.31 771.001 208.199 768.615 206.709C766.248 205.2 763.586 204.445 760.628 204.445C756.426 204.445 752.805 205.893 749.766 208.79C746.747 211.666 745.237 216.481 745.237 223.233ZM797.782 244.988V200.131H803.872L827.432 235.35V200.131H833.124V244.988H827.035L803.474 209.739V244.988H797.782ZM849.257 230.576L854.856 230.087C855.121 232.331 855.733 234.177 856.692 235.625C857.671 237.053 859.181 238.216 861.221 239.113C863.261 239.991 865.555 240.429 868.105 240.429C870.37 240.429 872.369 240.093 874.103 239.419C875.837 238.746 877.122 237.828 877.958 236.665C878.815 235.482 879.243 234.197 879.243 232.81C879.243 231.403 878.835 230.179 878.019 229.138C877.203 228.077 875.857 227.19 873.98 226.476C872.777 226.007 870.115 225.283 865.994 224.304C861.873 223.304 858.987 222.366 857.335 221.489C855.193 220.367 853.591 218.979 852.531 217.327C851.49 215.654 850.97 213.788 850.97 211.728C850.97 209.463 851.613 207.352 852.898 205.394C854.183 203.415 856.06 201.916 858.528 200.896C860.996 199.876 863.74 199.366 866.759 199.366C870.084 199.366 873.011 199.906 875.541 200.988C878.091 202.048 880.049 203.619 881.416 205.7C882.782 207.78 883.517 210.137 883.619 212.768L877.927 213.196C877.621 210.361 876.581 208.219 874.806 206.771C873.052 205.322 870.451 204.598 867.004 204.598C863.414 204.598 860.792 205.261 859.14 206.587C857.508 207.893 856.692 209.474 856.692 211.33C856.692 212.941 857.273 214.267 858.436 215.308C859.579 216.348 862.557 217.419 867.371 218.521C872.206 219.602 875.52 220.55 877.315 221.366C879.927 222.57 881.854 224.1 883.099 225.956C884.343 227.792 884.965 229.913 884.965 232.32C884.965 234.707 884.282 236.961 882.915 239.083C881.548 241.184 879.58 242.826 877.01 244.009C874.46 245.172 871.583 245.753 868.381 245.753C864.321 245.753 860.915 245.162 858.161 243.979C855.427 242.795 853.275 241.021 851.704 238.654C850.154 236.268 849.338 233.575 849.257 230.576Z" fill="white"/>
</g>
<defs>
<clipPath id="clip0_1198_620">
<rect width="895.328" height="269.15" fill="white" transform="translate(0.645996 0.851562)"/>
</clipPath>
</defs>
</svg>
